<svg width="51" height="31" viewBox="0 0 51 31" fill="none" xmlns="http://www.w3.org/2000/svg">
<path d="M14.4955 11.31C14.4955 11.9402 14.5626 12.4512 14.68 12.826C14.8142 13.2007 14.982 13.6095 15.2169 14.0523C15.3007 14.1886 15.3343 14.3249 15.3343 14.4441C15.3343 14.6144 15.2336 14.7848 15.0156 14.9551L13.9586 15.6705C13.8077 15.7727 13.6567 15.8238 13.5225 15.8238C13.3547 15.8238 13.1869 15.7386 13.0192 15.5853C12.7843 15.3298 12.583 15.0573 12.4152 14.7848C12.2475 14.4952 12.0797 14.1716 11.8952 13.7798C10.5866 15.3468 8.94253 16.1304 6.96292 16.1304C5.55371 16.1304 4.4297 15.7216 3.60766 14.904C2.78562 14.0864 2.36621 12.9963 2.36621 11.6337C2.36621 10.1859 2.8695 9.01058 3.89286 8.12486C4.91621 7.23915 6.27509 6.79629 8.00305 6.79629C8.57345 6.79629 9.16062 6.84739 9.78134 6.93255C10.4021 7.01772 11.0396 7.15398 11.7106 7.30728V6.06387C11.7106 4.76937 11.4422 3.86662 10.9221 3.3386C10.3853 2.81058 9.47937 2.55508 8.18759 2.55508C7.60042 2.55508 6.99647 2.62321 6.37575 2.77651C5.75503 2.92981 5.15108 3.11717 4.56391 3.35563C4.29549 3.47486 4.09417 3.54299 3.97674 3.57706C3.8593 3.61113 3.77542 3.62816 3.70832 3.62816C3.47345 3.62816 3.35601 3.45783 3.35601 3.10014V2.26552C3.35601 1.99299 3.38957 1.7886 3.47345 1.66937C3.55733 1.55014 3.70832 1.43091 3.94318 1.31168C4.53036 1.00508 5.23496 0.749588 6.057 0.545192C6.87904 0.323764 7.75141 0.221566 8.67411 0.221566C10.6705 0.221566 12.13 0.681456 13.0695 1.60124C13.9922 2.52102 14.4619 3.91772 14.4619 5.79135V11.31H14.4955ZM7.6843 13.899C8.23792 13.899 8.80832 13.7968 9.41226 13.5924C10.0162 13.388 10.5531 13.0133 11.006 12.5023C11.2744 12.1787 11.4758 11.821 11.5764 11.4122C11.6771 11.0034 11.7442 10.5095 11.7442 9.93036V9.21497C11.2577 9.09574 10.7376 8.99354 10.2007 8.92541C9.66391 8.85728 9.14384 8.82321 8.62378 8.82321C7.49976 8.82321 6.67772 9.04464 6.12411 9.50453C5.57049 9.96442 5.30207 10.6117 5.30207 11.4633C5.30207 12.2639 5.50338 12.86 5.92279 13.2688C6.32542 13.6946 6.91259 13.899 7.6843 13.899ZM21.1557 15.7386C20.8537 15.7386 20.6524 15.6875 20.5182 15.5683C20.384 15.4661 20.2665 15.2276 20.1659 14.904L16.2234 1.7375C16.1228 1.39684 16.0725 1.17541 16.0725 1.05618C16.0725 0.783654 16.2067 0.630357 16.4751 0.630357H18.1192C18.4379 0.630357 18.656 0.681456 18.7734 0.800687C18.9077 0.902885 19.0083 1.14135 19.109 1.46497L21.9274 12.7408L24.5445 1.46497C24.6284 1.12431 24.729 0.902885 24.8632 0.800687C24.9975 0.698489 25.2323 0.630357 25.5343 0.630357H26.8764C27.1952 0.630357 27.4132 0.681456 27.5475 0.800687C27.6817 0.902885 27.7991 1.14135 27.8662 1.46497L30.5169 12.8771L33.4192 1.46497C33.5198 1.12431 33.6373 0.902885 33.7547 0.800687C33.8889 0.698489 34.107 0.630357 34.409 0.630357H35.9692C36.2376 0.630357 36.3886 0.766621 36.3886 1.05618C36.3886 1.14135 36.3718 1.22651 36.355 1.32871C36.3382 1.43091 36.3047 1.56717 36.2376 1.75453L32.1945 14.921C32.0938 15.2617 31.9764 15.4831 31.8422 15.5853C31.708 15.6875 31.4899 15.7556 31.2047 15.7556H29.7619C29.4432 15.7556 29.2251 15.7045 29.0909 15.5853C28.9567 15.4661 28.8392 15.2446 28.7721 14.904L26.1718 3.91772L23.5883 14.887C23.5044 15.2276 23.4037 15.449 23.2695 15.5683C23.1353 15.6875 22.9004 15.7386 22.5984 15.7386H21.1557ZM42.7132 16.1985C41.8409 16.1985 40.9685 16.0963 40.1297 15.8919C39.2909 15.6875 38.6366 15.4661 38.2004 15.2106C37.932 15.0573 37.7475 14.8869 37.6804 14.7337C37.6133 14.5804 37.5797 14.41 37.5797 14.2567V13.388C37.5797 13.0304 37.7139 12.86 37.9656 12.86C38.0662 12.86 38.1669 12.8771 38.2675 12.9111C38.3682 12.9452 38.5192 13.0133 38.6869 13.0815C39.2573 13.337 39.8781 13.5413 40.5323 13.6776C41.2034 13.8139 41.8577 13.882 42.5287 13.882C43.5856 13.882 44.4077 13.6946 44.9781 13.3199C45.5484 12.9452 45.8504 12.4001 45.8504 11.7018C45.8504 11.2249 45.6994 10.8331 45.3975 10.5095C45.0955 10.1859 44.5251 9.89629 43.7031 9.62376L41.2705 8.85728C40.0458 8.46552 39.1399 7.8864 38.5863 7.11992C38.0327 6.37047 37.7475 5.53585 37.7475 4.65014C37.7475 3.93475 37.8984 3.30453 38.2004 2.75948C38.5024 2.21442 38.905 1.7375 39.4083 1.36277C39.9116 0.971016 40.482 0.681456 41.1531 0.47706C41.8241 0.272665 42.5287 0.1875 43.2669 0.1875C43.6359 0.1875 44.0218 0.204533 44.3909 0.255632C44.7767 0.306731 45.129 0.374863 45.4813 0.442994C45.8169 0.528159 46.1356 0.613324 46.4376 0.715522C46.7396 0.81772 46.9744 0.919918 47.1422 1.02212C47.3771 1.15838 47.5448 1.29464 47.6455 1.44794C47.7461 1.5842 47.7965 1.77157 47.7965 2.01003V2.81058C47.7965 3.16827 47.6623 3.35563 47.4106 3.35563C47.2764 3.35563 47.0583 3.2875 46.7731 3.15124C45.8169 2.70838 44.7432 2.48695 43.5521 2.48695C42.5958 2.48695 41.8409 2.64025 41.3208 2.96387C40.8008 3.2875 40.5323 3.78146 40.5323 4.47981C40.5323 4.95673 40.7001 5.36552 41.0356 5.68915C41.3711 6.01277 41.9919 6.3364 42.881 6.62596L45.2632 7.39245C46.4711 7.7842 47.3435 8.32926 47.8636 9.02761C48.3836 9.72596 48.6353 10.5265 48.6353 11.4122C48.6353 12.1446 48.4843 12.8089 48.1991 13.388C47.8971 13.9672 47.4945 14.4782 46.9744 14.887C46.4544 15.3128 45.8336 15.6194 45.1123 15.8408C44.3573 16.0793 43.5688 16.1985 42.7132 16.1985Z" fill="white"/>
<path fill-rule="evenodd" clip-rule="evenodd" d="M45.8837 24.4767C40.3643 28.6157 32.3452 30.813 25.4501 30.813C15.787 30.813 7.08005 27.185 0.503737 21.1553C-0.016329 20.6784 0.453408 20.0311 1.07413 20.4059C8.18729 24.596 16.9613 27.1339 26.0373 27.1339C32.1606 27.1339 38.888 25.8394 45.0784 23.1822C46.0011 22.7564 46.7896 23.7954 45.8837 24.4767Z" fill="#FF9900"/>
<path fill-rule="evenodd" clip-rule="evenodd" d="M48.1817 21.8195C47.4771 20.8997 43.5178 21.3766 41.7228 21.5981C41.1859 21.6662 41.1021 21.1893 41.5886 20.8316C44.7425 18.5832 49.9264 19.2305 50.5304 19.9799C51.1343 20.7464 50.3626 26.0096 47.41 28.5305C46.957 28.9223 46.5208 28.7179 46.7221 28.2069C47.3932 26.5206 48.8863 22.7223 48.1817 21.8195Z" fill="#FF9900"/>
</svg>
