<svg width="35" height="35" viewBox="0 0 35 35" fill="none" xmlns="http://www.w3.org/2000/svg">
<path d="M10.0577 5.83301H10.0227L9.97754 9.64655H10.0096C12.5107 9.64655 14.4517 11.6255 18.6721 18.7553L18.9273 19.1884L18.9448 19.2176L21.3073 15.6622L21.2898 15.6345C20.7736 14.7892 20.2397 13.9549 19.6886 13.132C19.146 12.3199 18.5744 11.5275 17.975 10.7563C15.1852 7.19217 12.8519 5.83301 10.0577 5.83301Z" fill="url(#paint0_linear_2195_31136)"/>
<path d="M10.0235 5.83301C7.21914 5.84759 4.7356 7.66759 2.94622 10.4559C2.94134 10.4642 2.93648 10.4724 2.93164 10.4807L6.21872 12.2759L6.23477 12.2511C7.28185 10.6718 8.58268 9.66405 9.97977 9.64801H10.0104L10.0571 5.83301H10.0235Z" fill="url(#paint1_linear_2195_31136)"/>
<path d="M2.94466 10.4561L2.92862 10.4808C1.75029 12.3183 0.87237 14.5758 0.39987 17.0098L0.392578 17.0419L4.08799 17.9169L4.09383 17.8848C4.48758 15.7454 5.24008 13.7606 6.21716 12.2775L6.2332 12.2527L2.94466 10.4561Z" fill="url(#paint2_linear_2195_31136)"/>
<path d="M4.09354 17.8848L0.399583 17.0098L0.392292 17.0418C0.134167 18.3806 0.00291667 19.7412 0 21.1048V21.1383L3.78875 21.4781V21.4446C3.77496 20.2513 3.87753 19.0596 4.095 17.8862L4.09354 17.8848Z" fill="url(#paint3_linear_2195_31136)"/>
<path d="M3.90414 22.6586C3.8362 22.2668 3.79769 21.8705 3.78893 21.4729V21.4409L0.000179529 21.0996V21.1346C-0.00407237 21.9425 0.0672099 22.7491 0.213096 23.5438L3.90997 22.6907C3.908 22.68 3.90605 22.6693 3.90414 22.6586Z" fill="url(#paint4_linear_2195_31136)"/>
<path d="M4.7687 24.6314C4.35453 24.1793 4.06286 23.5289 3.90974 22.6947L3.90391 22.6641L0.207031 23.5172L0.212865 23.5478C0.492865 25.0207 1.0412 26.2457 1.82578 27.1747L1.8462 27.1995L4.78911 24.6547C4.78178 24.6469 4.77595 24.6392 4.7687 24.6314Z" fill="url(#paint5_linear_2195_31136)"/>
<path d="M15.7212 14.0791C13.4928 17.5062 12.1424 19.6572 12.1424 19.6572C9.17471 24.3239 8.14805 25.3695 6.49721 25.3695C6.17256 25.378 5.84992 25.3162 5.55139 25.1883C5.25286 25.0604 4.9855 24.8695 4.76763 24.6287L1.82617 27.172L1.84659 27.1968C2.93159 28.4641 4.45992 29.167 6.35284 29.167C9.21555 29.167 11.2733 27.8137 14.9337 21.3941L17.5091 16.8295C16.9377 15.8966 16.3425 14.9795 15.7212 14.0791Z" fill="#0082FB"/>
<path d="M19.6906 8.67138L19.6673 8.69471C19.0839 9.3218 18.521 10.0189 17.9756 10.7597C18.5268 11.4641 19.0956 12.253 19.6891 13.1368C20.3891 12.0533 21.0425 11.1753 21.6827 10.5016L21.706 10.4783L19.6906 8.67138Z" fill="url(#paint6_linear_2195_31136)"/>
<path d="M30.5053 8.33113C28.9522 6.75613 27.1001 5.83301 25.1197 5.83301C23.0314 5.83301 21.2741 6.98072 19.6903 8.66801L19.667 8.69134L21.6824 10.4997L21.7057 10.4749C22.7485 9.38551 23.7591 8.84155 24.8791 8.84155C26.0837 8.84155 27.2124 9.4103 28.1895 10.4093L28.2114 10.4326L30.5287 8.35447L30.5053 8.33113Z" fill="#0082FB"/>
<path d="M34.997 20.5986C34.9095 15.5425 33.1449 11.0231 30.5286 8.35439L30.5053 8.33105L28.1895 10.4077L28.2113 10.4311C30.1801 12.4611 31.532 16.2352 31.6545 20.5971V20.6306H34.997V20.5986Z" fill="url(#paint7_linear_2195_31136)"/>
<path d="M34.9968 20.6351V20.6016H31.6543V20.6336C31.6601 20.8378 31.6631 21.0449 31.6631 21.252C31.6631 22.4405 31.4866 23.4016 31.1264 24.0957L31.1104 24.1278L33.6012 26.7266L33.6201 26.6974C34.5243 25.2974 34.9997 23.3534 34.9997 20.9953C34.9997 20.8743 34.9997 20.7547 34.9968 20.6351Z" fill="url(#paint8_linear_2195_31136)"/>
<path d="M31.1268 24.0918L31.1107 24.121C30.7986 24.7072 30.3539 25.098 29.7734 25.2687L30.908 28.8591C31.1267 28.7852 31.3401 28.6965 31.5468 28.5937C32.3543 28.1854 33.0411 27.5731 33.5389 26.8174L33.603 26.7226L33.6205 26.6935L31.1268 24.0918Z" fill="url(#paint9_linear_2195_31136)"/>
<path d="M29.0497 25.3643C28.6676 25.3643 28.3322 25.3074 28.0026 25.1602L26.8389 28.8381C27.4937 29.0612 28.1907 29.1618 28.968 29.1618C29.6855 29.1618 30.3432 29.0554 30.9397 28.8483L29.8022 25.2579C29.5587 25.3308 29.3064 25.3672 29.0497 25.3643Z" fill="url(#paint10_linear_2195_31136)"/>
<path d="M26.7214 24.1117L26.7009 24.0869L24.0234 26.8782L24.0468 26.903C24.9757 27.8975 25.8639 28.5144 26.8716 28.8527L28.0339 25.1777C27.6095 24.9955 27.1982 24.663 26.7214 24.1117Z" fill="url(#paint11_linear_2195_31136)"/>
<path d="M26.7007 24.0843C25.8986 23.1481 24.904 21.5877 23.3421 19.0677L21.3063 15.661L21.2902 15.6318L18.9277 19.1873L18.9452 19.2164L20.3875 21.6489C21.7861 23.9968 22.925 25.6943 24.0232 26.877L24.0465 26.9004L26.7211 24.1091C26.7142 24.1009 26.7074 24.0926 26.7007 24.0843Z" fill="url(#paint12_linear_2195_31136)"/>
<defs>
<linearGradient id="paint0_linear_2195_31136" x1="869.875" y1="1199.72" x2="167.302" y2="276.14" gradientUnits="userSpaceOnUse">
<stop offset="0.0006" stop-color="#0867DF"/>
<stop offset="0.4539" stop-color="#0668E1"/>
<stop offset="0.8591" stop-color="#0064E0"/>
</linearGradient>
<linearGradient id="paint1_linear_2195_31136" x1="157.339" y1="494.683" x2="658.639" y2="113.142" gradientUnits="userSpaceOnUse">
<stop offset="0.1323" stop-color="#0064DF"/>
<stop offset="0.9988" stop-color="#0064E0"/>
</linearGradient>
<linearGradient id="paint2_linear_2195_31136" x1="223.872" y1="675.418" x2="428.244" y2="159.396" gradientUnits="userSpaceOnUse">
<stop offset="0.0147" stop-color="#0072EC"/>
<stop offset="0.6881" stop-color="#0064DF"/>
</linearGradient>
<linearGradient id="paint3_linear_2195_31136" x1="192.596" y1="420.009" x2="217.528" y2="87.6617" gradientUnits="userSpaceOnUse">
<stop offset="0.0731" stop-color="#007CF6"/>
<stop offset="0.9943" stop-color="#0072EC"/>
</linearGradient>
<linearGradient id="paint4_linear_2195_31136" x1="203.925" y1="163.597" x2="196.76" y2="110.113" gradientUnits="userSpaceOnUse">
<stop offset="0.0731" stop-color="#007FF9"/>
<stop offset="1" stop-color="#007CF6"/>
</linearGradient>
<linearGradient id="paint5_linear_2195_31136" x1="172.901" y1="79.3658" x2="282.271" y2="312.093" gradientUnits="userSpaceOnUse">
<stop offset="0.0731" stop-color="#007FF9"/>
<stop offset="1" stop-color="#0082FB"/>
</linearGradient>
<linearGradient id="paint6_linear_2195_31136" x1="147.824" y1="316.254" x2="279.718" y2="133.3" gradientUnits="userSpaceOnUse">
<stop offset="0.2799" stop-color="#007FF8"/>
<stop offset="0.9141" stop-color="#0082FB"/>
</linearGradient>
<linearGradient id="paint7_linear_2195_31136" x1="326.099" y1="85.019" x2="619.065" y2="1166.16" gradientUnits="userSpaceOnUse">
<stop stop-color="#0082FB"/>
<stop offset="0.9995" stop-color="#0081FA"/>
</linearGradient>
<linearGradient id="paint8_linear_2195_31136" x1="264.687" y1="49.1502" x2="92.8093" y2="397.626" gradientUnits="userSpaceOnUse">
<stop offset="0.0619" stop-color="#0081FA"/>
<stop offset="1" stop-color="#0080F9"/>
</linearGradient>
<linearGradient id="paint9_linear_2195_31136" x1="146.271" y1="306.887" x2="284.953" y2="212.136" gradientUnits="userSpaceOnUse">
<stop stop-color="#027AF3"/>
<stop offset="1" stop-color="#0080F9"/>
</linearGradient>
<linearGradient id="paint10_linear_2195_31136" x1="110.631" y1="225.247" x2="363.567" y2="225.247" gradientUnits="userSpaceOnUse">
<stop stop-color="#0377EF"/>
<stop offset="0.9994" stop-color="#0279F1"/>
</linearGradient>
<linearGradient id="paint11_linear_2195_31136" x1="185.655" y1="192.311" x2="328.064" y2="276.38" gradientUnits="userSpaceOnUse">
<stop offset="0.0019" stop-color="#0471E9"/>
<stop offset="1" stop-color="#0377EF"/>
</linearGradient>
<linearGradient id="paint12_linear_2195_31136" x1="270.294" y1="237.836" x2="735.465" y2="824.486" gradientUnits="userSpaceOnUse">
<stop offset="0.2765" stop-color="#0867DF"/>
<stop offset="1" stop-color="#0471E9"/>
</linearGradient>
</defs>
</svg>
