<svg width="24" height="25" viewBox="0 0 24 25" fill="none" xmlns="http://www.w3.org/2000/svg">
<path d="M7.29101 21.324L2.00001 22.5L3.17601 17.209C2.40154 15.7604 1.99754 14.1426 2.00001 12.5C2.00001 6.977 6.47701 2.5 12 2.5C17.523 2.5 22 6.977 22 12.5C22 18.023 17.523 22.5 12 22.5C10.3574 22.5025 8.73963 22.0985 7.29101 21.324ZM7.58101 19.211L8.23401 19.561C9.39256 20.1801 10.6864 20.5027 12 20.5C13.5823 20.5 15.129 20.0308 16.4446 19.1518C17.7602 18.2727 18.7855 17.0233 19.391 15.5615C19.9965 14.0997 20.155 12.4911 19.8463 10.9393C19.5376 9.38743 18.7757 7.96197 17.6569 6.84315C16.538 5.72433 15.1126 4.9624 13.5607 4.65372C12.0089 4.34504 10.4004 4.50346 8.93854 5.10896C7.47674 5.71447 6.22731 6.73984 5.34825 8.05544C4.4692 9.37103 4.00001 10.9177 4.00001 12.5C4.00001 13.834 4.32501 15.118 4.94001 16.266L5.28901 16.919L4.63401 19.866L7.58101 19.211Z" fill="#ED1B33"/>
</svg>
