<svg width="24" height="25" viewBox="0 0 24 25" fill="none" xmlns="http://www.w3.org/2000/svg">
<path d="M4.00004 16.5H20V5.5H4.00004V16.5ZM13 18.5V20.5H17V22.5H7.00004V20.5H11V18.5H2.99204C2.86073 18.4992 2.73086 18.4725 2.60988 18.4215C2.4889 18.3704 2.37919 18.2959 2.28703 18.2024C2.19488 18.1088 2.12209 17.998 2.07284 17.8763C2.02359 17.7546 1.99885 17.6243 2.00004 17.493V4.507C2.00004 3.951 2.45504 3.5 2.99204 3.5H21.008C21.556 3.5 22 3.949 22 4.507V17.493C22 18.049 21.545 18.5 21.008 18.5H13Z" fill="#ED1B33"/>
</svg>
